<svg width="356" height="427" viewBox="0 0 356 500" fill="none" xmlns="http://www.w3.org/2000/svg">
<rect x="52.5" y="65.5" width="251" height="405" rx="100.5" fill="black" stroke="white"/>
<path d="M33.1402 130.596L9.40192 119.551L10.7576 116.685L21.3286 121.604L27.298 108.984L16.7271 104.066L18.0828 101.2L41.821 112.244L40.4653 115.11L29.848 110.17L23.8786 122.79L34.4959 127.73L33.1402 130.596Z" fill="black"/>
<path d="M47.6292 103.984C46.9431 105.022 46.1236 105.837 45.1708 106.428C44.2108 107.015 43.1907 107.314 42.1104 107.326C41.023 107.332 39.9426 106.989 38.8694 106.294C37.9249 105.683 37.2814 105.003 36.9391 104.253C36.5896 103.499 36.4511 102.704 36.5237 101.868C36.5963 101.032 36.797 100.187 37.1259 99.3341C37.4523 98.4694 37.8169 97.6242 38.2196 96.7986C38.7487 95.7199 39.1856 94.8504 39.53 94.1902C39.8721 93.5182 40.0548 92.9868 40.0782 92.5959C40.1063 92.1979 39.9164 91.8669 39.5086 91.603L39.4227 91.5475C38.3637 90.8622 37.3505 90.6177 36.3831 90.8139C35.4204 91.003 34.5561 91.677 33.79 92.8359C32.9958 94.0375 32.6378 95.1508 32.7161 96.176C32.7944 97.2012 33.0425 98.0469 33.4602 98.7131L31.0225 100.546C30.3028 99.4716 29.8988 98.3981 29.8107 97.326C29.7201 96.2421 29.8435 95.2053 30.1809 94.2157C30.5159 93.2144 30.956 92.3013 31.5012 91.4766C31.8489 90.9505 32.3128 90.3878 32.8928 89.7886C33.4703 89.1776 34.1637 88.6772 34.9731 88.2874C35.7871 87.8904 36.7251 87.731 37.787 87.8091C38.8489 87.8872 40.0346 88.3499 41.344 89.1973L52.2057 96.2259L50.542 98.7428L48.3096 97.2982L48.225 97.4262C48.4699 97.8283 48.6648 98.3604 48.8094 99.0225C48.9541 99.6846 48.951 100.439 48.8002 101.285C48.6493 102.132 48.259 103.031 47.6292 103.984ZM45.6076 102.128C46.2656 101.132 46.6234 100.166 46.681 99.2287C46.7433 98.2844 46.5784 97.4367 46.1862 96.6854C45.7986 95.9271 45.2614 95.3257 44.5745 94.8812L42.2562 93.381C42.3145 93.571 42.2775 93.882 42.1451 94.3141C42.0103 94.7344 41.8272 95.2047 41.5957 95.7248C41.3618 96.2333 41.1277 96.7264 40.8936 97.2043C40.657 97.6704 40.4673 98.0501 40.3245 98.3434C39.978 99.0531 39.7134 99.7548 39.5306 100.449C39.3453 101.131 39.3272 101.769 39.4761 102.362C39.6226 102.944 40.0179 103.444 40.6618 103.861C41.5419 104.43 42.4212 104.537 43.2997 104.182C44.1757 103.815 44.945 103.13 45.6076 102.128Z" fill="black"/>
<path d="M60.7004 97.1287L40.3973 79.3303L42.3458 77.1626L44.6915 79.2188L44.9308 78.9526C44.8225 78.5631 44.7008 78.0484 44.5655 77.4085C44.4296 76.7566 44.4524 76.0173 44.634 75.1906C44.815 74.3519 45.3328 73.4572 46.1874 72.5064C47.2927 71.2768 48.5778 70.4654 50.0427 70.0723C51.5076 69.6791 53.0468 69.7196 54.6605 70.1935C56.2742 70.6674 57.8564 71.5842 59.4074 72.9438C60.9711 74.3147 62.0902 75.7659 62.7644 77.2977C63.4323 78.8238 63.6615 80.328 63.4521 81.8104C63.2362 83.2871 62.5813 84.6339 61.4874 85.8509C60.6441 86.789 59.812 87.4025 58.9909 87.6913C58.1634 87.9745 57.411 88.0912 56.7337 88.0415C56.0501 87.9862 55.4996 87.923 55.0823 87.8518L54.9114 88.042L62.7173 94.8849L60.7004 97.1287ZM49.763 83.5967C50.8781 84.5743 52.0071 85.275 53.1501 85.699C54.2866 86.1173 55.3744 86.2266 56.4134 86.0268C57.446 85.8214 58.3668 85.2686 59.1759 84.3686C60.0191 83.4305 60.4728 82.4286 60.537 81.3629C60.6004 80.2852 60.3484 79.2143 59.7809 78.1501C59.2127 77.074 58.4031 76.0753 57.352 75.1539C56.3138 74.2438 55.2357 73.582 54.1176 73.1685C52.9989 72.7431 51.9111 72.6339 50.8543 72.8407C49.7968 73.0356 48.8407 73.6085 47.9861 74.5592C47.1657 75.472 46.7102 76.444 46.6197 77.4753C46.5228 78.5009 46.7484 79.5374 47.2967 80.5847C47.8386 81.6264 48.6607 82.6304 49.763 83.5967Z" fill="black"/>
<path d="M73.0659 83.6474L55.7639 62.9196L58.0277 61.0836L60.0266 63.4783L60.3047 63.2529C60.2583 62.8516 60.2181 62.3246 60.184 61.672C60.151 61.0075 60.2887 60.2814 60.5969 59.4938C60.9064 58.6942 61.5576 57.8918 62.5505 57.0866C63.8347 56.0451 65.2315 55.4444 66.7409 55.2846C68.2504 55.1247 69.7659 55.4043 71.2874 56.1234C72.809 56.8424 74.2306 57.9936 75.5523 59.577C76.8849 61.1735 77.7653 62.7801 78.1935 64.3968C78.6162 66.007 78.6087 67.5273 78.1708 68.9576C77.7275 70.3814 76.8704 71.6087 75.5995 72.6394C74.6198 73.434 73.7016 73.9098 72.8448 74.067C71.9826 74.2176 71.2206 74.2157 70.5588 74.0612C69.8915 73.9001 69.3571 73.752 68.9557 73.6168L68.7571 73.7778L75.4092 81.747L73.0659 83.6474ZM64.3591 68.5888C65.3094 69.7273 66.3165 70.5947 67.3805 71.1911C68.439 71.781 69.4974 72.0582 70.5557 72.0228C71.6086 71.9809 72.605 71.5788 73.545 70.8165C74.5247 70.022 75.1292 69.1038 75.3585 68.062C75.589 67.0083 75.5065 65.9121 75.1111 64.7735C74.7169 63.6229 74.0719 62.5112 73.1762 61.4381C72.2915 60.3782 71.3286 59.5571 70.2876 58.975C69.2478 58.3809 68.1894 58.1037 67.1124 58.1433C66.0365 58.1709 65.0021 58.5874 64.0092 59.3927C63.056 60.1657 62.4544 61.0541 62.2044 62.0578C61.9489 63.055 62.0107 64.1131 62.3897 65.2321C62.7632 66.3445 63.4197 67.4634 64.3591 68.5888Z" fill="black"/>
<path d="M85.1617 65.236L74.4212 48.7973L76.9707 47.184L87.7111 63.6226L85.1617 65.236ZM73.9275 45.2372C73.4306 45.5517 72.8925 45.6552 72.3133 45.5477C71.7413 45.4357 71.3015 45.1442 70.9938 44.6733C70.6862 44.2024 70.5992 43.6877 70.733 43.129C70.874 42.5658 71.193 42.127 71.6899 41.8125C72.1868 41.498 72.7213 41.3968 73.2933 41.5088C73.8725 41.6163 74.3159 41.9055 74.6236 42.3764C74.9312 42.8473 75.0146 43.3643 74.8736 43.9275C74.7398 44.4862 74.4244 44.9227 73.9275 45.2372Z" fill="black"/>
<path d="M88.5481 49.4233L93.8696 59.9692L91.157 61.2901L82.3109 43.7592L84.9315 42.4831L86.3137 45.2223L86.5436 45.1103C86.5081 44.0186 86.7755 42.9974 87.3458 42.0467C87.9123 41.0884 88.8621 40.2847 90.1954 39.6354C91.3907 39.0533 92.5595 38.7875 93.7018 38.8379C94.8402 38.8807 95.9061 39.2716 96.8994 40.0106C97.8889 40.742 98.7599 41.8534 99.5125 43.3447L105.133 54.4842L102.421 55.805L96.8921 44.8482C96.1972 43.471 95.2957 42.5735 94.1876 42.1558C93.0757 41.7304 91.8914 41.8237 90.6348 42.4356C89.7689 42.8573 89.0891 43.4206 88.5952 44.1255C88.1091 44.8267 87.851 45.63 87.8212 46.5356C87.7913 47.4411 88.0336 48.4037 88.5481 49.4233Z" fill="black"/>
<path d="M117.909 50.5239C116.103 51.0881 114.415 51.1778 112.847 50.7929C111.283 50.3974 109.914 49.5931 108.738 48.3801C107.568 47.1564 106.671 45.5885 106.047 43.6763C105.423 41.7642 105.223 39.9696 105.447 38.2926C105.676 36.6049 106.288 35.155 107.282 33.9427C108.281 32.7198 109.627 31.844 111.319 31.3154C112.295 31.0104 113.312 30.8713 114.37 30.898C115.427 30.9247 116.466 31.1807 117.484 31.666C118.501 32.1431 119.435 32.9048 120.287 33.951C121.139 34.9972 121.85 36.3913 122.418 38.1333L122.815 39.3487L108.367 43.8623L107.558 41.383L119.077 37.7842C118.733 36.7309 118.215 35.8571 117.523 35.1628C116.838 34.466 116.032 33.9993 115.103 33.7627C114.182 33.5235 113.201 33.5666 112.16 33.8919C111.013 34.2503 110.113 34.8439 109.46 35.6729C108.813 36.4912 108.412 37.4199 108.258 38.4591C108.104 39.4982 108.195 40.5323 108.53 41.5613L109.07 43.2142C109.53 44.624 110.164 45.7429 110.972 46.5708C111.785 47.388 112.714 47.9147 113.759 48.1506C114.802 48.3785 115.905 48.3107 117.068 47.9473C117.825 47.7109 118.474 47.3921 119.015 46.9908C119.562 46.5789 119.989 46.0884 120.296 45.5191C120.601 44.9418 120.77 44.291 120.802 43.5665L123.838 43.4752C123.852 44.5065 123.629 45.4867 123.17 46.4158C122.709 47.3367 122.035 48.1545 121.147 48.8693C120.257 49.5759 119.178 50.1274 117.909 50.5239Z" fill="black"/>
<path d="M139.245 29.75L136.719 30.9792C136.468 30.5653 136.139 30.1781 135.733 29.8177C135.333 29.4474 134.83 29.1734 134.224 28.9957C133.618 28.818 132.883 28.8062 132.019 28.9602C130.836 29.1711 129.902 29.6189 129.216 30.3039C128.537 30.9789 128.275 31.731 128.432 32.5601C128.571 33.297 128.949 33.8312 129.567 34.1626C130.185 34.494 131.091 34.7004 132.286 34.7818L135.288 34.9739C137.096 35.0846 138.505 35.4957 139.515 36.2073C140.524 36.9105 141.156 37.9362 141.41 39.2846C141.619 40.39 141.487 41.4351 141.014 42.4197C140.549 43.4028 139.797 44.2465 138.76 44.9509C137.722 45.6552 136.452 46.1412 134.95 46.4089C132.978 46.7603 131.266 46.624 129.812 46.0001C128.359 45.3761 127.305 44.2741 126.651 42.694L129.337 41.4881C129.802 42.4787 130.457 43.1671 131.301 43.5532C132.155 43.9379 133.19 44.0218 134.406 43.805C135.791 43.5582 136.834 43.0692 137.538 42.338C138.248 41.5968 138.524 40.8117 138.368 39.9826C138.241 39.3126 137.9 38.7934 137.345 38.4249C136.788 38.048 136.002 37.8333 134.986 37.7806L131.621 37.6011C129.772 37.4978 128.349 37.0806 127.352 36.3493C126.362 35.6081 125.742 34.5717 125.49 33.2401C125.284 32.1514 125.409 31.1338 125.863 30.1871C126.326 29.239 127.045 28.4313 128.02 27.7641C129.004 27.0953 130.176 26.6398 131.535 26.3976C133.448 26.0566 135.029 26.2077 136.278 26.8508C137.535 27.4924 138.524 28.4588 139.245 29.75Z" fill="black"/>
<path d="M158.589 28.1997L155.939 29.1388C155.737 28.6992 155.454 28.2775 155.092 27.8738C154.738 27.4611 154.27 27.1325 153.688 26.8881C153.107 26.6437 152.378 26.5497 151.502 26.606C150.302 26.6832 149.323 27.0237 148.563 27.6277C147.812 28.2226 147.466 28.9409 147.527 29.7825C147.581 30.5305 147.895 31.1038 148.471 31.5023C149.047 31.9008 149.923 32.2074 151.101 32.422L154.061 32.9489C155.844 33.2613 157.196 33.8276 158.118 34.6479C159.04 35.4597 159.55 36.5499 159.648 37.9185C159.729 39.0406 159.478 40.0645 158.896 40.9901C158.322 41.9152 157.479 42.6697 156.367 43.2536C155.256 43.8375 153.939 44.1785 152.417 44.2764C150.418 44.405 148.732 44.0779 147.36 43.2951C145.988 42.5122 145.067 41.299 144.598 39.6553L147.405 38.7574C147.753 39.794 148.324 40.5514 149.119 41.0298C149.923 41.5076 150.941 41.7068 152.174 41.6275C153.578 41.5372 154.671 41.168 155.453 40.5199C156.243 39.8627 156.607 39.1133 156.547 38.2718C156.498 37.5917 156.218 37.0375 155.709 36.6091C155.199 36.1722 154.442 35.8707 153.439 35.7047L150.118 35.1497C148.293 34.8401 146.927 34.2661 146.021 33.4277C145.122 32.5803 144.624 31.4808 144.527 30.1292C144.447 29.0241 144.687 28.0265 145.247 27.1365C145.815 26.246 146.622 25.5237 147.667 24.9696C148.721 24.4151 149.936 24.0935 151.314 24.0048C153.253 23.8801 154.806 24.2072 155.973 24.9861C157.149 25.7645 158.021 26.8357 158.589 28.1997Z" fill="black"/>
<path d="M188.935 25.5304C188.916 24.2255 188.402 23.1588 187.392 22.3302C186.381 21.5016 185.088 21.0027 183.512 20.8333C182.36 20.7095 181.332 20.7877 180.428 21.0678C179.534 21.3488 178.811 21.7897 178.26 22.3905C177.717 22.9923 177.402 23.7085 177.316 24.5392C177.243 25.2343 177.346 25.8497 177.624 26.3853C177.912 26.9134 178.301 27.3709 178.792 27.7579C179.284 28.1365 179.807 28.4627 180.361 28.7365C180.916 29.0019 181.428 29.2241 181.898 29.4031L184.468 30.3992C185.127 30.6501 185.856 30.9769 186.653 31.3798C187.46 31.7836 188.216 32.2977 188.922 32.9221C189.637 33.539 190.201 34.2939 190.613 35.1868C191.026 36.0797 191.168 37.1365 191.041 38.3571C190.894 39.7643 190.393 40.9962 189.537 42.0529C188.69 43.1104 187.528 43.8985 186.052 44.417C184.583 44.9365 182.849 45.0888 180.85 44.8739C178.985 44.6736 177.402 44.1992 176.101 43.4508C174.808 42.7033 173.828 41.7494 173.16 40.5891C172.502 39.4297 172.196 38.1325 172.243 36.6975L175.497 37.0471C175.479 38.0395 175.724 38.8888 176.233 39.5949C176.752 40.2935 177.439 40.8474 178.296 41.2566C179.163 41.6583 180.113 41.9146 181.147 42.0257C182.35 42.155 183.451 42.0761 184.449 41.7891C185.448 41.4935 186.264 41.024 186.897 40.3805C187.53 39.7286 187.897 38.9279 187.996 37.9785C188.086 37.1139 187.918 36.3844 187.491 35.79C187.065 35.1956 186.475 34.6865 185.723 34.2628C184.97 33.839 184.149 33.4508 183.261 33.0982L180.153 31.8386C178.18 31.0352 176.657 30.0273 175.584 28.8148C174.511 27.6023 174.066 26.1187 174.249 24.364C174.401 22.906 174.928 21.6769 175.829 20.6765C176.74 19.6686 177.896 18.9356 179.298 18.4776C180.709 18.0121 182.245 17.8685 183.906 18.047C185.583 18.2272 187.043 18.6884 188.286 19.4304C189.529 20.164 190.478 21.0888 191.132 22.2049C191.796 23.322 192.08 24.5397 191.985 25.8581L188.935 25.5304Z" fill="black"/>
<path d="M206.624 29.0282L206.054 31.5207L196.133 29.2547L196.703 26.7623L206.624 29.0282ZM200.644 22.8367L203.585 23.5085L199.411 41.753C199.221 42.5838 199.199 43.2344 199.345 43.7048C199.501 44.1689 199.754 44.5152 200.104 44.7437C200.464 44.9658 200.86 45.1262 201.292 45.2249C201.616 45.2989 201.886 45.343 202.101 45.3572C202.318 45.3631 202.492 45.3679 202.622 45.3714L202.616 48.15C202.4 48.1792 202.104 48.1904 201.73 48.1836C201.354 48.1851 200.891 48.1232 200.343 47.9979C199.512 47.8082 198.739 47.4436 198.023 46.9041C197.315 46.3666 196.783 45.6725 196.427 44.8218C196.079 43.973 196.033 42.992 196.287 41.8787L200.644 22.8367Z" fill="black"/>
<path d="M214.529 50.5968C213.304 50.3783 212.233 49.9492 211.317 49.3095C210.402 48.6615 209.729 47.8445 209.298 46.8586C208.868 45.8643 208.765 44.7377 208.988 43.4789C209.184 42.3712 209.562 41.5122 210.12 40.9019C210.68 40.2832 211.36 39.8418 212.16 39.5776C212.959 39.3134 213.817 39.1634 214.732 39.1275C215.657 39.0848 216.579 39.0847 217.498 39.1274C218.699 39.1859 219.672 39.2425 220.415 39.2972C221.168 39.345 221.73 39.3023 222.099 39.1691C222.478 39.0375 222.709 38.7325 222.794 38.2542L222.812 38.1535C223.032 36.9115 222.863 35.8858 222.306 35.0764C221.757 34.2686 220.798 33.7426 219.431 33.4987C218.013 33.2457 216.846 33.3579 215.93 33.8352C215.015 34.3125 214.331 34.8744 213.879 35.521L211.238 34.011C211.95 32.926 212.783 32.131 213.738 31.6261C214.703 31.1144 215.708 30.8174 216.753 30.7354C217.807 30.6465 218.821 30.6888 219.794 30.8625C220.415 30.9732 221.115 31.176 221.894 31.4707C222.682 31.7586 223.414 32.1964 224.089 32.7843C224.772 33.3736 225.284 34.1706 225.625 35.1751C225.966 36.1796 226.001 37.4497 225.728 38.9854L223.47 51.7242L220.5 51.1944L220.964 48.5761L220.813 48.5492C220.537 48.9328 220.122 49.3219 219.567 49.7165C219.012 50.111 218.315 50.4065 217.475 50.6029C216.636 50.7994 215.654 50.7974 214.529 50.5968ZM215.456 48.009C216.63 48.2186 217.661 48.1644 218.548 47.8466C219.444 47.5302 220.162 47.0436 220.703 46.3869C221.252 45.7316 221.598 45.0012 221.741 44.1956L222.223 41.4766C222.07 41.6052 221.769 41.6943 221.318 41.7438C220.878 41.7865 220.373 41.8046 219.803 41.7981C219.242 41.7847 218.696 41.7652 218.164 41.7396C217.642 41.707 217.218 41.6833 216.891 41.6683C216.102 41.6313 215.351 41.6663 214.64 41.7731C213.938 41.873 213.342 42.1087 212.852 42.4802C212.372 42.8447 212.065 43.4046 211.931 44.1599C211.748 45.192 211.992 46.0406 212.662 46.7055C213.341 47.3635 214.272 47.798 215.456 48.009Z" fill="black"/>
<path d="M227.956 52.9741L233.778 34.2205L236.564 35.0775L235.684 37.9101L235.88 37.9702C236.51 37.1476 237.363 36.5851 238.438 36.2828C239.514 35.9806 240.613 36.0024 241.738 36.3482C241.949 36.4133 242.213 36.4988 242.528 36.6047C242.843 36.7106 243.08 36.7967 243.238 36.8631L242.328 39.7934C242.238 39.7389 242.025 39.6333 241.69 39.4768C241.366 39.3145 241.012 39.1745 240.629 39.0567C239.717 38.7761 238.843 38.7168 238.007 38.8788C237.182 39.0352 236.458 39.3832 235.836 39.9229C235.224 40.4569 234.787 41.1472 234.524 41.9937L230.84 53.8612L227.956 52.9741Z" fill="black"/>
<path d="M255.798 42.0671L254.817 44.4283L245.4 40.5726L246.381 38.2114L255.798 42.0671ZM250.93 34.9906L253.722 36.1337L246.543 53.4178C246.216 54.2049 246.085 54.842 246.15 55.3292C246.227 55.8117 246.418 56.1942 246.726 56.4765C247.044 56.7542 247.408 56.977 247.818 57.1449C248.126 57.2709 248.385 57.3585 248.595 57.4077C248.809 57.4491 248.98 57.4822 249.108 57.507L248.636 60.2424C248.417 60.2358 248.123 60.1984 247.755 60.1304C247.383 60.0702 246.937 59.9336 246.416 59.7205C245.628 59.3976 244.925 58.9119 244.308 58.2634C243.7 57.6182 243.291 56.8476 243.081 55.9515C242.88 55.0587 242.999 54.0849 243.437 53.0302L250.93 34.9906Z" fill="black"/>
<path d="M271.672 55.0195L268.916 54.4092C268.983 53.9323 268.973 53.4283 268.884 52.8972C268.808 52.3626 268.589 51.8388 268.229 51.3259C267.869 50.8129 267.302 50.3486 266.529 49.933C265.47 49.3641 264.455 49.133 263.483 49.2396C262.523 49.3428 261.84 49.7644 261.435 50.5045C261.075 51.1623 261.031 51.8109 261.302 52.4504C261.574 53.0899 262.151 53.811 263.033 54.6139L265.256 56.6217C266.598 57.8267 267.437 59.0179 267.774 60.1953C268.114 61.3653 267.955 62.5521 267.296 63.7556C266.756 64.7423 265.988 65.4711 264.991 65.9419C264.003 66.4167 262.879 66.606 261.62 66.5099C260.36 66.4137 259.059 66.0045 257.715 65.2823C255.951 64.3341 254.7 63.1681 253.961 61.7843C253.223 60.4004 253.101 58.8932 253.595 57.2626L256.461 57.9904C256.194 59.0464 256.267 59.9857 256.682 60.8083C257.104 61.6349 257.859 62.3407 258.947 62.9258C260.186 63.5915 261.313 63.8584 262.327 63.7265C263.354 63.5912 264.07 63.1535 264.475 62.4134C264.802 61.8154 264.866 61.2016 264.667 60.572C264.472 59.9349 263.994 59.2814 263.234 58.6115L260.719 56.3894C259.34 55.1643 258.494 53.9596 258.18 52.7752C257.879 51.5875 258.053 50.3993 258.704 49.2107C259.236 48.2389 259.981 47.5265 260.938 47.0735C261.903 46.6246 262.979 46.4433 264.166 46.5296C265.36 46.6199 266.565 46.9919 267.781 47.6456C269.493 48.5655 270.632 49.6615 271.199 50.9335C271.773 52.2096 271.931 53.5716 271.672 55.0195Z" fill="black"/>
<path d="M274.813 74.8926L292.012 55.153L294.428 57.2065L286.769 65.9968L297.405 75.0387L305.064 66.2484L307.48 68.3019L290.28 88.0415L287.864 85.988L295.557 77.1591L284.921 68.1173L277.228 76.9461L274.813 74.8926Z" fill="black"/>
<path d="M298.081 97.4197C296.857 95.9766 296.124 94.4663 295.881 92.8886C295.65 91.312 295.877 89.7612 296.562 88.2364C297.258 86.7126 298.383 85.3111 299.935 84.032C301.487 82.7528 303.092 81.9049 304.75 81.4883C306.42 81.0728 308.015 81.0951 309.533 81.5552C311.064 82.0164 312.403 82.923 313.549 84.275C314.211 85.055 314.732 85.9337 315.114 86.911C315.496 87.8883 315.656 88.9329 315.593 90.0447C315.537 91.1511 315.182 92.288 314.53 93.4552C313.877 94.6225 312.844 95.7888 311.429 96.9541L310.443 97.7671L300.653 86.2228L302.666 84.5643L310.471 93.7685C311.326 93.0639 311.946 92.2662 312.33 91.3753C312.72 90.4909 312.847 89.5801 312.711 88.6428C312.581 87.712 312.163 86.8306 311.458 85.9986C310.68 85.0821 309.778 84.4788 308.75 84.1886C307.734 83.8996 306.709 83.8772 305.676 84.1213C304.642 84.3654 303.708 84.8316 302.873 85.52L301.531 86.6257C300.387 87.5688 299.582 88.5633 299.117 89.6091C298.664 90.656 298.528 91.7012 298.709 92.7447C298.896 93.7828 299.384 94.7666 300.172 95.6961C300.685 96.3006 301.234 96.7761 301.818 97.1227C302.414 97.4704 303.039 97.6794 303.69 97.7496C304.349 97.8144 305.024 97.7275 305.715 97.4889L306.969 100.232C306.008 100.627 305.003 100.787 303.956 100.711C302.915 100.63 301.889 100.316 300.878 99.7692C299.873 99.2169 298.941 98.4337 298.081 97.4197Z" fill="black"/>
<path d="M305.564 106.166L322.118 95.6035L323.721 98.0377L321.221 99.6331L321.334 99.8039C322.349 99.5802 323.37 99.697 324.396 100.154C325.422 100.612 326.258 101.332 326.905 102.314C327.027 102.499 327.176 102.732 327.352 103.015C327.527 103.297 327.655 103.514 327.734 103.665L325.148 105.316C325.113 105.216 325.017 105 324.858 104.666C324.711 104.335 324.528 104.003 324.308 103.668C323.783 102.871 323.145 102.267 322.395 101.856C321.656 101.448 320.873 101.25 320.045 101.263C319.228 101.279 318.446 101.525 317.699 102.002L307.224 108.686L305.564 106.166Z" fill="black"/>
<path d="M316.195 124.835C315.351 123.142 314.999 121.501 315.14 119.91C315.292 118.324 315.882 116.872 316.91 115.555C317.95 114.241 319.377 113.149 321.189 112.277C323.002 111.405 324.763 110.964 326.472 110.955C328.193 110.95 329.736 111.352 331.101 112.161C332.478 112.974 333.562 114.174 334.353 115.76C334.809 116.675 335.106 117.653 335.244 118.693C335.382 119.734 335.287 120.786 334.961 121.851C334.643 122.912 334.027 123.931 333.115 124.909C332.203 125.887 330.921 126.773 329.27 127.567L328.118 128.122L321.364 114.576L323.714 113.445L329.099 124.245C330.098 123.765 330.89 123.138 331.475 122.365C332.065 121.599 332.405 120.745 332.497 119.802C332.593 118.867 332.397 117.911 331.911 116.935C331.374 115.86 330.642 115.058 329.712 114.531C328.795 114.008 327.805 113.742 326.743 113.733C325.681 113.723 324.663 113.953 323.688 114.423L322.121 115.176C320.784 115.819 319.766 116.593 319.064 117.498C318.375 118.406 317.993 119.389 317.92 120.445C317.855 121.498 318.094 122.57 318.638 123.661C318.991 124.37 319.411 124.963 319.896 125.439C320.392 125.918 320.948 126.27 321.564 126.494C322.188 126.714 322.865 126.791 323.593 126.724L324.156 129.687C323.128 129.841 322.115 129.756 321.116 129.433C320.125 129.106 319.203 128.557 318.351 127.784C317.507 127.008 316.789 126.025 316.195 124.835Z" fill="blue" stroke="white"/>
</svg>
